<?xml version="1.0" standalone="no"?>
<!DOCTYPE svg PUBLIC "-//W3C//DTD SVG 20010904//EN"
 "http://www.w3.org/TR/2001/REC-SVG-20010904/DTD/svg10.dtd">
<svg version="1.0" xmlns="http://www.w3.org/2000/svg"
 width="1024.000000pt" height="1024.000000pt" viewBox="0 0 1024.000000 1024.000000"
 preserveAspectRatio="xMidYMid meet">

<g transform="translate(0.000000,1024.000000) scale(0.100000,-0.100000)"
fill="#000000" stroke="none">
<path d="M0 5120 l0 -5120 5120 0 5120 0 0 5120 0 5120 -5120 0 -5120 0 0
-5120z m5173 1615 c133 -28 274 -131 330 -241 47 -92 60 -156 55 -273 -5 -119
-21 -174 -76 -266 -47 -79 -202 -234 -275 -275 -31 -17 -57 -35 -57 -38 0 -13
256 -317 265 -315 11 2 109 212 130 281 l17 52 185 0 186 0 -6 -88 c-3 -49
-13 -117 -22 -153 -22 -84 -98 -254 -159 -354 -44 -72 -47 -81 -35 -101 8 -12
86 -109 174 -217 l160 -195 5 1092 5 1091 640 0 c674 0 707 -2 839 -47 336
-115 535 -380 553 -738 11 -237 -48 -425 -192 -603 -82 -102 -273 -213 -444
-257 -103 -27 -174 -32 -491 -39 l-335 -6 -2 -285 -2 -285 -548 -2 -548 -3
-68 85 c-38 47 -73 85 -78 85 -5 0 -30 -15 -56 -34 -145 -103 -336 -156 -558
-156 -345 0 -596 171 -661 447 -24 101 -15 276 18 364 49 132 154 249 333 371
50 34 92 62 93 64 2 1 -26 44 -64 96 -83 115 -120 193 -141 294 -27 131 5 298
76 404 83 124 214 211 365 245 83 18 304 18 389 0z m-1645 -19 c299 -70 511
-243 600 -489 43 -119 56 -214 49 -370 -7 -155 -22 -219 -82 -342 -80 -164
-186 -267 -360 -351 -194 -94 -328 -114 -752 -114 l-263 0 0 -290 0 -290 -285
0 -285 0 0 1128 c0 621 3 1132 7 1136 5 4 298 6 653 3 562 -3 654 -6 718 -21z"/>
<path d="M4895 6378 c-11 -6 -34 -24 -52 -41 -79 -75 -60 -247 41 -363 l33
-39 41 29 c110 76 176 178 177 271 0 69 -18 105 -68 135 -36 22 -138 27 -172
8z"/>
<path d="M6628 6303 c-2 -5 -4 -190 -3 -413 l0 -405 265 1 c249 0 269 2 330
23 165 57 255 161 283 327 29 167 -57 339 -205 415 -100 51 -158 59 -425 59
-133 0 -243 -3 -245 -7z"/>
<path d="M4716 5339 c-33 -30 -66 -73 -83 -107 -61 -123 -23 -283 81 -347 43
-26 61 -30 135 -33 69 -3 97 1 141 17 82 31 153 78 143 95 -22 39 -340 425
-350 426 -6 0 -36 -23 -67 -51z"/>
<path d="M2720 5894 l0 -416 263 5 c191 3 276 8 312 19 170 51 271 157 305
323 18 85 7 164 -35 250 -54 113 -140 179 -280 215 -68 17 -111 20 -322 20
l-243 0 0 -416z"/>
</g>
</svg>
